<svg width="34" height="34" viewBox="0 0 34 34" fill="none" xmlns="http://www.w3.org/2000/svg">
<path d="M5.40977 22L11.7098 8H14.2698L20.5898 22H17.8698L12.4498 9.38H13.4898L8.08977 22H5.40977ZM8.30977 18.76L9.00977 16.72H16.5698L17.2698 18.76H8.30977Z" fill="black"/>
<path d="M25.19 18.59C25.19 19.2833 25.12 19.95 24.98 20.59C24.84 21.2233 24.6067 21.8233 24.28 22.39C23.96 22.95 23.5367 23.4733 23.01 23.96C22.49 24.4467 21.8467 24.8833 21.08 25.27L20.34 24.26C21.4133 23.7067 22.2367 23.06 22.81 22.32C23.39 21.5733 23.74 20.6867 23.86 19.66H20.85V18.59H25.19ZM28.93 22.25H27.64V26.84H26.32V17.64H27.64V21.16H28.93V22.25Z" fill="black"/>
</svg>
