<svg width="24" height="24" viewBox="0 0 24 24" fill="none" xmlns="http://www.w3.org/2000/svg">
<path opacity="0.6" d="M4.74981 21.5147L8.70748 14.6744L10.424 15.6633L6.46637 22.5036C6.1929 22.9763 5.58921 23.1377 5.11555 22.8648L5.11336 22.8686C4.63969 22.5957 4.47793 21.9933 4.75141 21.5207L4.74981 21.5147Z" fill="#18CCB6"/>
<path d="M11.4867 0.873736L11.2111 4.65925L10.9573 5.13953L3.54513 10.2786C2.77503 10.8112 2.83192 11.9639 3.64577 12.4224L14.7728 18.6704C15.591 19.1289 16.6061 18.5788 16.663 17.6444L17.2231 8.65434L17.4768 8.17405L20.5966 5.99094C21.1654 5.59362 21.1217 4.73784 20.5178 4.39727L12.8913 0.122747C12.2875 -0.217818 11.5349 0.18824 11.4867 0.873736Z" fill="#18CCB6"/>
</svg>
