<svg width="24" height="24" viewBox="0 0 24 24" fill="none" xmlns="http://www.w3.org/2000/svg">
<path opacity="0.2" d="M4.72262 21.5617L8.46373 15.0957L10.1803 16.0846L6.43919 22.5506C6.18068 22.9974 5.58909 23.1379 5.11542 22.865L5.11335 22.8686C4.63969 22.5957 4.46584 22.0142 4.72434 21.5674L4.72262 21.5617Z" fill="black"/>
<path opacity="0.3" d="M11.4867 0.873736L11.2111 4.65925L10.9573 5.13953L3.54513 10.2786C2.77503 10.8112 2.83192 11.9639 3.64577 12.4224L14.7728 18.6704C15.591 19.1289 16.6061 18.5788 16.663 17.6444L17.2231 8.65434L17.4768 8.17405L20.5966 5.99094C21.1654 5.59362 21.1217 4.73784 20.5178 4.39727L12.8913 0.122747C12.2875 -0.217818 11.5349 0.18824 11.4867 0.873736Z" fill="black"/>
</svg>
