<svg width="40" height="20" viewBox="0 0 40 20" fill="none" xmlns="http://www.w3.org/2000/svg">
<path fill-rule="evenodd" clip-rule="evenodd" d="M12.4494 6.34316C12.164 6.69506 11.7074 6.97261 11.2508 6.93296C11.1937 6.45715 11.4173 5.95161 11.6789 5.63936C11.9642 5.27755 12.4637 5.01983 12.8679 5C12.9155 5.49563 12.73 5.98135 12.4494 6.34316ZM12.8632 7.02712C12.4609 7.003 12.0938 7.15319 11.7974 7.2745C11.6066 7.35256 11.445 7.41867 11.3221 7.41867C11.1842 7.41867 11.0159 7.34903 10.827 7.27084L10.827 7.27084C10.5795 7.16838 10.2966 7.05124 9.99982 7.05686C9.31966 7.06677 8.68707 7.46823 8.33985 8.1076C7.6264 9.38632 8.15435 11.2796 8.84403 12.3205C9.18173 12.8359 9.58602 13.4009 10.1187 13.3811C10.3531 13.3719 10.5217 13.2973 10.6962 13.2202C10.897 13.1314 11.1057 13.0391 11.4315 13.0391C11.746 13.0391 11.9455 13.129 12.1371 13.2152C12.3192 13.2973 12.4941 13.376 12.7538 13.3712C13.3055 13.3613 13.6527 12.8557 13.9904 12.3403C14.3548 11.7871 14.515 11.2471 14.5393 11.1652L14.5422 11.1557C14.5416 11.1551 14.5371 11.153 14.5291 11.1492C14.4073 11.0911 13.4761 10.6469 13.4672 9.45571C13.4582 8.45591 14.2058 7.94935 14.3235 7.86961L14.3235 7.8696C14.3306 7.86476 14.3354 7.86149 14.3376 7.85978C13.862 7.12625 13.12 7.04695 12.8632 7.02712ZM16.6826 13.3167V5.5898H19.465C20.9015 5.5898 21.9051 6.62071 21.9051 8.12742C21.9051 9.63414 20.8824 10.675 19.427 10.675H17.8336V13.3167H16.6826ZM17.8335 6.60088H19.1605C20.1594 6.60088 20.7301 7.15599 20.7301 8.13238C20.7301 9.10877 20.1594 9.66883 19.1558 9.66883H17.8335V6.60088ZM25.7054 12.3898C25.401 12.9945 24.7304 13.3761 24.0074 13.3761C22.9372 13.3761 22.1905 12.712 22.1905 11.7108C22.1905 10.7196 22.9135 10.1496 24.25 10.0653L25.6864 9.97612V9.54988C25.6864 8.92043 25.2916 8.57845 24.5877 8.57845C24.0074 8.57845 23.5841 8.8907 23.4985 9.3665H22.4616C22.4949 8.36533 23.3986 7.63675 24.621 7.63675C25.9385 7.63675 26.7946 8.35542 26.7946 9.47058V13.3167H25.7292V12.3898H25.7054ZM24.3165 12.4592C23.7029 12.4592 23.3129 12.1519 23.3129 11.6811C23.3129 11.1954 23.6887 10.9129 24.4069 10.8683L25.6863 10.784V11.2202C25.6863 11.9438 25.0965 12.4592 24.3165 12.4592ZM30.3286 13.619C29.8672 14.9721 29.3393 15.4181 28.2168 15.4181C28.1311 15.4181 27.8458 15.4082 27.7792 15.3884V14.4616C27.8505 14.4715 28.0265 14.4814 28.1169 14.4814C28.6258 14.4814 28.9112 14.2584 29.0872 13.6785L29.1918 13.3365L27.2417 7.7111H28.4451L29.8006 12.2759H29.8244L31.18 7.7111H32.35L30.3286 13.619Z" fill="black"/>
</svg>
