<svg width="20" height="20" viewBox="0 0 20 20" fill="none" xmlns="http://www.w3.org/2000/svg">
<path d="M14.3097 9.70997C14.2913 7.76336 15.8989 6.82876 15.968 6.78544C15.0652 5.46282 13.6575 5.27848 13.1582 5.25636C11.9605 5.13562 10.8191 5.9633 10.2102 5.9633C9.60121 5.9633 8.6643 5.27663 7.67212 5.29599C6.36394 5.31442 5.16263 6.05638 4.49011 7.22325C3.13403 9.57725 4.14188 13.0668 5.46572 14.9756C6.11059 15.9102 6.87984 16.96 7.89045 16.9222C8.86606 16.8844 9.23364 16.2927 10.4119 16.2927C11.5902 16.2927 11.92 16.9222 12.9509 16.9065C13.9983 16.8844 14.6626 15.9498 15.3019 15.0152C15.7603 14.3401 16.1192 13.6026 16.3678 12.8253C16.3503 12.817 14.3291 12.0409 14.3097 9.70997Z" fill="black"/>
<path d="M12.3715 3.99385C12.9104 3.34406 13.2725 2.43896 13.1721 1.53847C12.3991 1.56796 11.4622 2.05462 10.9095 2.70256C10.4102 3.28046 9.97256 4.20308 10.0914 5.08421C10.9528 5.14965 11.8363 4.64457 12.3715 3.99385Z" fill="black"/>
</svg>
