<svg width="24" height="24" viewBox="0 0 24 24" fill="none" xmlns="http://www.w3.org/2000/svg">
<mask id="mask0_66_2605" style="mask-type:alpha" maskUnits="userSpaceOnUse" x="0" y="0" width="24" height="24">
<rect width="24" height="24" fill="#D9D9D9"/>
</mask>
<g mask="url(#mask0_66_2605)">
<path d="M6.09757 21.5V14.5H4.67432V8.94347C4.67432 8.54046 4.81407 8.19913 5.09357 7.91947C5.37307 7.6398 5.70882 7.49997 6.10082 7.49997H8.67582C9.07615 7.49997 9.41615 7.6398 9.69582 7.91947C9.97565 8.19913 10.1156 8.54046 10.1156 8.94347V14.5H8.69232V21.5H6.09757ZM7.39682 6.35647C6.93865 6.35647 6.55048 6.19796 6.23232 5.88096C5.91415 5.56413 5.75507 5.17663 5.75507 4.71846C5.75507 4.26046 5.91357 3.87238 6.23057 3.55421C6.5474 3.23605 6.9349 3.07697 7.39307 3.07697C7.85107 3.07697 8.23915 3.23538 8.55732 3.55222C8.87548 3.86905 9.03457 4.25655 9.03457 4.71472C9.03457 5.17288 8.87615 5.56105 8.55932 5.87921C8.24248 6.19738 7.85498 6.35647 7.39682 6.35647ZM15.7308 21.5V16H13.4333L15.3193 8.45897C15.4055 8.15913 15.5733 7.92438 15.8228 7.75471C16.0722 7.58488 16.3607 7.49997 16.6886 7.49997C17.0164 7.49997 17.3029 7.58488 17.5481 7.75471C17.7932 7.92438 17.9589 8.15913 18.0451 8.45897L19.9436 16H17.6333V21.5H15.7308ZM16.6841 6.35647C16.2259 6.35647 15.8377 6.19796 15.5196 5.88096C15.2014 5.56413 15.0423 5.17663 15.0423 4.71846C15.0423 4.26046 15.2008 3.87238 15.5178 3.55421C15.8347 3.23605 16.2222 3.07697 16.6803 3.07697C17.1383 3.07697 17.5264 3.23538 17.8446 3.55222C18.1627 3.86905 18.3218 4.25655 18.3218 4.71472C18.3218 5.17288 18.1634 5.56105 17.8466 5.87921C17.5296 6.19738 17.1421 6.35647 16.6841 6.35647Z" fill="black"/>
</g>
</svg>
