<svg width="22" height="22" viewBox="0 0 22 22" fill="none" xmlns="http://www.w3.org/2000/svg">
<path d="M11 15.088L6.956 11.044L7.76486 10.222L10.4286 12.8857V3H11.5714V12.8857L14.2351 10.222L15.044 11.044L11 15.088ZM4.84629 19C4.32019 19 3.88095 18.8238 3.52857 18.4714C3.17619 18.119 3 17.6798 3 17.1537V14.3846H4.14286V17.1537C4.14286 17.3297 4.2161 17.491 4.36257 17.6374C4.50905 17.7839 4.67029 17.8571 4.84629 17.8571H17.1537C17.3297 17.8571 17.491 17.7839 17.6374 17.6374C17.7839 17.491 17.8571 17.3297 17.8571 17.1537V14.3846H19V17.1537C19 17.6798 18.8238 18.119 18.4714 18.4714C18.119 18.8238 17.6798 19 17.1537 19H4.84629Z" fill="#18CCB6"/>
</svg>
