<svg width="24" height="24" viewBox="0 0 24 24" fill="none" xmlns="http://www.w3.org/2000/svg">
<mask id="mask0_66_2604" style="mask-type:alpha" maskUnits="userSpaceOnUse" x="0" y="0" width="24" height="24">
<rect width="24" height="24" fill="#D9D9D9"/>
</mask>
<g mask="url(#mask0_66_2604)">
<path d="M8.28725 18.745H9.09475V12.2078C9.58292 12.1316 9.99342 11.918 10.3263 11.567C10.6593 11.216 10.8258 10.7913 10.8258 10.2928V6.668C10.8258 6.55517 10.7858 6.45875 10.7058 6.37875C10.6258 6.29892 10.5281 6.259 10.4128 6.259C10.2999 6.259 10.2036 6.29892 10.1238 6.37875C10.0438 6.45875 10.0038 6.55308 10.0038 6.66175V10.014H9.13075V6.66175C9.13075 6.55308 9.09083 6.45875 9.011 6.37875C8.931 6.29892 8.8325 6.259 8.7155 6.259C8.59833 6.259 8.50192 6.29892 8.42625 6.37875C8.35058 6.45875 8.31275 6.55308 8.31275 6.66175V10.014H7.37425V6.66175C7.37425 6.55308 7.33692 6.45875 7.26225 6.37875C7.18742 6.29892 7.0885 6.259 6.9655 6.259C6.85267 6.259 6.75625 6.29892 6.67625 6.37875C6.59642 6.45875 6.5565 6.55517 6.5565 6.668V10.2928C6.5565 10.7913 6.72225 11.216 7.05375 11.567C7.38542 11.918 7.79658 12.1316 8.28725 12.2078V18.745ZM14.3885 18.745H15.1963V12.4068C15.7471 12.2304 16.1839 11.8662 16.5068 11.314C16.8296 10.7617 16.991 10.1017 16.991 9.334C16.991 8.44817 16.7825 7.71417 16.3655 7.132C15.9485 6.55 15.4311 6.259 14.8133 6.259C14.1954 6.259 13.6819 6.55 13.2728 7.132C12.8636 7.71417 12.659 8.44817 12.659 9.334C12.659 10.119 12.8136 10.7839 13.1228 11.3288C13.4319 11.8738 13.8538 12.2351 14.3885 12.4128V18.745ZM4.4615 21C4.05183 21 3.70583 20.8588 3.4235 20.5765C3.14117 20.2942 3 19.9482 3 19.5385V4.4615C3 4.05183 3.14117 3.70583 3.4235 3.4235C3.70583 3.14117 4.05183 3 4.4615 3H19.5385C19.9482 3 20.2942 3.14117 20.5765 3.4235C20.8588 3.70583 21 4.05183 21 4.4615V19.5385C21 19.9482 20.8588 20.2942 20.5765 20.5765C20.2942 20.8588 19.9482 21 19.5385 21H4.4615ZM4.4615 20.1538H19.5385C19.6923 20.1538 19.8333 20.0897 19.9615 19.9615C20.0897 19.8333 20.1538 19.6923 20.1538 19.5385V4.4615C20.1538 4.30767 20.0897 4.16667 19.9615 4.0385C19.8333 3.91033 19.6923 3.84625 19.5385 3.84625H4.4615C4.30767 3.84625 4.16667 3.91033 4.0385 4.0385C3.91033 4.16667 3.84625 4.30767 3.84625 4.4615V19.5385C3.84625 19.6923 3.91033 19.8333 4.0385 19.9615C4.16667 20.0897 4.30767 20.1538 4.4615 20.1538Z" fill="black"/>
</g>
</svg>
