<svg width="24" height="24" viewBox="0 0 24 24" fill="none" xmlns="http://www.w3.org/2000/svg">
<mask id="mask0_66_2607" style="mask-type:alpha" maskUnits="userSpaceOnUse" x="0" y="0" width="24" height="24">
<rect width="24" height="24" fill="#D9D9D9"/>
</mask>
<g mask="url(#mask0_66_2607)">
<path d="M7.8845 18.4612H9.8845V14.3234H10.8845V11.4969C10.8845 11.0476 10.74 10.6689 10.451 10.3609C10.1618 10.0531 9.80633 9.89918 9.3845 9.89918H8.3845C7.96283 9.89918 7.60742 10.0531 7.31825 10.3609C7.02908 10.6689 6.8845 11.0476 6.8845 11.4969V14.3234H7.8845V18.4612ZM8.88175 8.96773C9.18758 8.96773 9.44892 8.85332 9.66575 8.62449C9.88258 8.39549 9.991 8.11812 9.991 7.79237C9.991 7.46679 9.8835 7.18844 9.6685 6.95731C9.45367 6.72636 9.19333 6.61088 8.8875 6.61088C8.58167 6.61088 8.32033 6.72538 8.1035 6.95438C7.88667 7.18338 7.77825 7.46067 7.77825 7.78624C7.77825 8.11199 7.88575 8.39034 8.10075 8.6213C8.31558 8.85225 8.57592 8.96773 8.88175 8.96773ZM13.6795 10.8413H16.8718L15.2758 8.11723L13.6795 10.8413ZM15.2758 16.9247L16.8718 14.2007H13.6795L15.2758 16.9247ZM5.4615 21.042C5.05183 21.042 4.70583 20.8916 4.4235 20.5909C4.14117 20.2902 4 19.9216 4 19.4853V5.55668C4 5.12104 4.14117 4.75269 4.4235 4.45161C4.70583 4.15054 5.05183 4 5.4615 4H18.5385C18.9475 4 19.2933 4.15054 19.576 4.45161C19.8587 4.75269 20 5.12104 20 5.55668V19.4853C20 19.9216 19.8587 20.2902 19.576 20.5909C19.2933 20.8916 18.9475 21.042 18.5385 21.042H5.4615ZM5.4615 20.1406H18.5385C18.718 20.1406 18.8654 20.0792 18.9808 19.9563C19.0961 19.8335 19.1538 19.6765 19.1538 19.4853V5.55668C19.1538 5.36549 19.0961 5.20847 18.9808 5.08563C18.8654 4.96278 18.718 4.90136 18.5385 4.90136H5.4615C5.282 4.90136 5.13458 4.96278 5.01925 5.08563C4.90392 5.20847 4.84625 5.36549 4.84625 5.55668V19.4853C4.84625 19.6765 4.90392 19.8335 5.01925 19.9563C5.13458 20.0792 5.282 20.1406 5.4615 20.1406Z" fill="black"/>
</g>
</svg>
