<svg width="20" height="20" viewBox="0 0 20 20" fill="none" xmlns="http://www.w3.org/2000/svg">
<path fill-rule="evenodd" clip-rule="evenodd" d="M5.91315 10.0002C5.91315 9.5505 5.98783 9.11937 6.12114 8.71499L3.78786 6.93321C3.33311 7.85652 3.0769 8.89688 3.0769 10.0002C3.0769 11.1026 3.3328 12.1423 3.78691 13.065L6.11893 11.2797C5.98689 10.8772 5.91315 10.4477 5.91315 10.0002Z" fill="#FBBC05"/>
<path fill-rule="evenodd" clip-rule="evenodd" d="M10.01 5.90914C10.987 5.90914 11.8694 6.2553 12.5627 6.82174L14.5795 4.80772C13.3505 3.73777 11.7748 3.07692 10.01 3.07692C7.27024 3.07692 4.91553 4.64377 3.78796 6.93314L6.12124 8.71492C6.65887 7.08293 8.19139 5.90914 10.01 5.90914Z" fill="#EA4335"/>
<path fill-rule="evenodd" clip-rule="evenodd" d="M10.01 14.0911C8.19139 14.0911 6.65887 12.9173 6.12124 11.2853L3.78796 13.0668C4.91553 15.3565 7.27024 16.9233 10.01 16.9233C11.7011 16.9233 13.3155 16.3229 14.5272 15.1979L12.3124 13.4856C11.6875 13.8793 10.9006 14.0911 10.01 14.0911Z" fill="#34A853"/>
<path fill-rule="evenodd" clip-rule="evenodd" d="M16.6277 10.0005C16.6277 9.5914 16.5646 9.15083 16.4701 8.74173H10.0098V11.4166H13.7284C13.5425 12.3286 13.0363 13.0297 12.3122 13.486L14.527 15.1982C15.7998 14.0169 16.6277 12.2571 16.6277 10.0005Z" fill="#4285F4"/>
</svg>
