<svg width="40" height="17" viewBox="0 0 40 17" fill="none" xmlns="http://www.w3.org/2000/svg">
<path fill-rule="evenodd" clip-rule="evenodd" d="M31.6664 16.5845H8.33395C3.72965 16.5845 0.000183105 12.8732 0.000183105 8.29329C0.000183105 3.71341 3.73172 0 8.33395 0H31.6664C36.2686 0 40.0002 3.71341 40.0002 8.29329C40.0002 12.8732 36.2707 16.5866 31.6664 16.5866" fill="#FFF100"/>
<path fill-rule="evenodd" clip-rule="evenodd" d="M9.35819 3.97964C6.84769 3.97964 4.80986 5.58054 4.80986 7.55483C4.80986 8.82358 5.6536 9.93761 6.92025 10.573L6.49112 12.1657C6.47454 12.2152 6.48905 12.2667 6.52429 12.3018C6.54917 12.3266 6.58234 12.3389 6.61758 12.3389C6.64453 12.3389 6.67148 12.3286 6.69636 12.3101L8.53932 11.0723C8.80675 11.1094 9.0804 11.1321 9.35819 11.1321C11.8687 11.1321 13.9065 9.53119 13.9065 7.5569C13.9065 5.5826 11.8708 3.98171 9.35819 3.98171V3.97964Z" fill="#040000"/>
<path d="M17.7396 10.5254V12.8339H16.0874V4.31989H17.2525L17.4556 4.8604C17.806 4.51175 18.3387 4.14041 19.1991 4.14041C20.8181 4.14041 21.5873 5.34521 21.5748 7.29268C21.5748 9.33093 20.3869 10.6368 18.6891 10.6368C18.3616 10.6368 18.1128 10.6141 17.7396 10.5234V10.5254ZM17.7396 5.69386V9.37632C17.8308 9.38664 18.0568 9.40933 18.2724 9.40933C19.4499 9.40933 19.9018 8.58825 19.9018 7.29268C19.9018 6.15597 19.5971 5.46899 18.658 5.46899C18.3533 5.46899 18.0133 5.55976 17.7417 5.69386H17.7396Z" fill="#040000"/>
<path d="M25.1714 6.71925H26.1106V6.51708C26.1106 5.84247 25.725 5.52683 25.0574 5.52683C24.5475 5.52683 23.8924 5.67331 23.3596 5.93324L22.9076 4.82954C23.4964 4.42312 24.4003 4.14256 25.2046 4.14256C26.7884 4.14256 27.6488 4.97601 27.6488 6.56452V10.4719H26.4837L26.3137 9.95404C25.6462 10.4388 25.0346 10.641 24.4811 10.641C23.2704 10.641 22.5905 9.92104 22.5905 8.70386C22.5905 7.40829 23.4964 6.72131 25.1694 6.72131L25.1714 6.71925ZM26.1106 8.89159V7.76519H25.3518C24.5039 7.76519 24.0727 8.06846 24.0727 8.67704C24.0727 9.13916 24.3111 9.36402 24.7962 9.36402C25.2482 9.36402 25.8265 9.13916 26.1085 8.89159H26.1106Z" fill="#040000"/>
<path d="M32.6512 9.83848C32.0748 11.3692 31.3845 12.4853 30.377 13.1042L29.3591 12.1697C29.9479 11.6622 30.3666 11.1671 30.7273 10.5028L28.532 4.54687L30.1718 4.10745L31.5752 8.93901L32.9663 4.08682L34.5853 4.53656L32.6512 9.84055V9.83848Z" fill="#040000"/>
</svg>
