<svg width="64" height="69" viewBox="0 0 64 69" fill="none" xmlns="http://www.w3.org/2000/svg">
<g filter="url(#filter0_d_66_1901)">
<path d="M32.0093 31.2821C33.1964 31.2821 34.2096 30.8594 35.049 30.014C35.8882 29.1686 36.3079 28.1524 36.3079 26.9653C36.3079 25.7782 35.8852 24.765 35.0399 23.9257C34.1945 23.0863 33.1783 22.6667 31.9911 22.6667C30.804 22.6667 29.7908 23.0894 28.9515 23.9347C28.1122 24.7801 27.6925 25.7963 27.6925 26.9835C27.6925 28.1706 28.1152 29.1838 28.9605 30.0231C29.8059 30.8624 30.8222 31.2821 32.0093 31.2821ZM32.0002 56.0513C25.7335 50.5094 21.013 45.341 17.8387 40.5461C14.6643 35.7513 13.0771 31.388 13.0771 27.4564C13.0771 21.8154 14.9139 17.1624 18.5874 13.4974C22.2609 9.83247 26.7318 8 32.0002 8C37.2686 8 41.7396 9.83247 45.413 13.4974C49.0865 17.1624 50.9233 21.8154 50.9233 27.4564C50.9233 31.388 49.3361 35.7513 46.1618 40.5461C42.9874 45.341 38.2669 50.5094 32.0002 56.0513Z" fill="#18CCB6"/>
</g>
<defs>
<filter id="filter0_d_66_1901" x="7.07715" y="8" width="49.8461" height="60.0513" filterUnits="userSpaceOnUse" color-interpolation-filters="sRGB">
<feFlood flood-opacity="0" result="BackgroundImageFix"/>
<feColorMatrix in="SourceAlpha" type="matrix" values="0 0 0 0 0 0 0 0 0 0 0 0 0 0 0 0 0 0 127 0" result="hardAlpha"/>
<feOffset dy="6"/>
<feGaussianBlur stdDeviation="3"/>
<feComposite in2="hardAlpha" operator="out"/>
<feColorMatrix type="matrix" values="0 0 0 0 0.135042 0 0 0 0 0 0 0 0 0 0.0313831 0 0 0 0.2 0"/>
<feBlend mode="normal" in2="BackgroundImageFix" result="effect1_dropShadow_66_1901"/>
<feBlend mode="normal" in="SourceGraphic" in2="effect1_dropShadow_66_1901" result="shape"/>
</filter>
</defs>
</svg>
