<svg width="36" height="36" viewBox="0 0 36 36" fill="none" xmlns="http://www.w3.org/2000/svg">
<g filter="url(#filter0_d_66_1883)">
<rect x="4" y="4" width="28" height="28" rx="14" fill="white" shape-rendering="crispEdges"/>
<path d="M18.0021 25.2755L11.4668 18.4223C10.1777 17.0705 10.1777 14.8681 11.4668 13.5164C12.7439 12.1772 14.8032 12.1769 16.0815 13.5153C16.0815 13.5154 16.0816 13.5154 16.0816 13.5154C16.0817 13.5155 16.0817 13.5155 16.0818 13.5156L17.6343 15.1436L17.9961 15.523L18.3579 15.1436L19.9217 13.5037C21.1694 12.1954 23.1664 12.1661 24.4476 13.4159L24.5326 13.5049C25.8225 14.8566 25.8225 17.0588 24.5326 18.4105L24.5325 18.4106L22.9687 20.0505L22.6396 20.3956L22.6477 20.404L18.0021 25.2755Z" fill="#FF6861" stroke="#FF6861"/>
</g>
<defs>
<filter id="filter0_d_66_1883" x="0" y="0" width="36" height="36" filterUnits="userSpaceOnUse" color-interpolation-filters="sRGB">
<feFlood flood-opacity="0" result="BackgroundImageFix"/>
<feColorMatrix in="SourceAlpha" type="matrix" values="0 0 0 0 0 0 0 0 0 0 0 0 0 0 0 0 0 0 127 0" result="hardAlpha"/>
<feOffset/>
<feGaussianBlur stdDeviation="2"/>
<feComposite in2="hardAlpha" operator="out"/>
<feColorMatrix type="matrix" values="0 0 0 0 0 0 0 0 0 0 0 0 0 0 0 0 0 0 0.1 0"/>
<feBlend mode="normal" in2="BackgroundImageFix" result="effect1_dropShadow_66_1883"/>
<feBlend mode="normal" in="SourceGraphic" in2="effect1_dropShadow_66_1883" result="shape"/>
</filter>
</defs>
</svg>
