<svg width="24" height="24" viewBox="0 0 24 24" fill="none" xmlns="http://www.w3.org/2000/svg">
<path fill-rule="evenodd" clip-rule="evenodd" d="M1 12C2.73 7.90267 7 5 12 5C17 5 21.27 7.90267 23 12C21.27 16.0973 17 19 12 19C7 19 2.73 16.0973 1 12ZM12 17C14.7614 17 17 14.7614 17 12C17 9.23858 14.7614 7 12 7C9.23858 7 7 9.23858 7 12C7 14.7614 9.23858 17 12 17ZM12 9C10.34 9 9 10.34 9 12C9 13.66 10.34 15 12 15C13.66 15 15 13.66 15 12C15 10.34 13.66 9 12 9Z" fill="#CACACA"/>
<path fill-rule="evenodd" clip-rule="evenodd" d="M13 10C12.4467 10 12 10.4467 12 11C12 11.5533 12.4467 12 13 12C13.5533 12 14 11.5533 14 11C14 10.4467 13.5533 10 13 10Z" fill="white"/>
</svg>
