<svg width="24" height="24" viewBox="0 0 24 24" fill="none" xmlns="http://www.w3.org/2000/svg">
<mask id="mask0_66_1838" style="mask-type:alpha" maskUnits="userSpaceOnUse" x="0" y="0" width="24" height="24">
<rect width="24" height="24" fill="#D9D9D9"/>
</mask>
<g mask="url(#mask0_66_1838)">
<path d="M11.4998 21.4498V19.9883C9.41647 19.7935 7.6963 19.0175 6.3393 17.6603C4.98214 16.3033 4.20614 14.5831 4.0113 12.4998H2.5498V11.4998H4.0113C4.20614 9.41647 4.98214 7.69631 6.3393 6.33931C7.6963 4.98214 9.41647 4.20614 11.4998 4.01131V2.5498H12.4998V4.01131C14.5831 4.20614 16.3033 4.98214 17.6603 6.33931C19.0175 7.69631 19.7935 9.41647 19.9883 11.4998H21.4498V12.4998H19.9883C19.7935 14.5831 19.0175 16.3033 17.6603 17.6603C16.3033 19.0175 14.5831 19.7935 12.4998 19.9883V21.4498H11.4998ZM11.9998 18.9998C13.9331 18.9998 15.5831 18.3165 16.9498 16.9498C18.3165 15.5831 18.9998 13.9331 18.9998 11.9998C18.9998 10.0665 18.3165 8.41647 16.9498 7.0498C15.5831 5.68314 13.9331 4.9998 11.9998 4.9998C10.0665 4.9998 8.41647 5.68314 7.0498 7.0498C5.68314 8.41647 4.9998 10.0665 4.9998 11.9998C4.9998 13.9331 5.68314 15.5831 7.0498 16.9498C8.41647 18.3165 10.0665 18.9998 11.9998 18.9998ZM11.9998 14.9998C11.1748 14.9998 10.4686 14.7061 9.88105 14.1186C9.29355 13.5311 8.9998 12.8248 8.9998 11.9998C8.9998 11.1748 9.29355 10.4686 9.88105 9.88105C10.4686 9.29355 11.1748 8.9998 11.9998 8.9998C12.8248 8.9998 13.5311 9.29355 14.1186 9.88105C14.7061 10.4686 14.9998 11.1748 14.9998 11.9998C14.9998 12.8248 14.7061 13.5311 14.1186 14.1186C13.5311 14.7061 12.8248 14.9998 11.9998 14.9998ZM11.9998 13.9998C12.5498 13.9998 13.0206 13.804 13.4123 13.4123C13.804 13.0206 13.9998 12.5498 13.9998 11.9998C13.9998 11.4498 13.804 10.979 13.4123 10.5873C13.0206 10.1956 12.5498 9.9998 11.9998 9.9998C11.4498 9.9998 10.979 10.1956 10.5873 10.5873C10.1956 10.979 9.9998 11.4498 9.9998 11.9998C9.9998 12.5498 10.1956 13.0206 10.5873 13.4123C10.979 13.804 11.4498 13.9998 11.9998 13.9998Z" fill="#1C1B1F"/>
</g>
</svg>
