<svg width="27" height="26" viewBox="0 0 27 26" fill="none" xmlns="http://www.w3.org/2000/svg">
<g id="ic_lowprice">
<path id="currency_exchange" d="M13.1482 21V19.8061C12.4836 19.6523 11.9094 19.3996 11.4256 19.0478C10.9417 18.6959 10.5406 18.1981 10.2222 17.5541L10.991 17.2465C11.2669 17.8335 11.6484 18.2897 12.1356 18.6153C12.6229 18.9407 13.1651 19.1034 13.7623 19.1034C14.392 19.1034 14.9686 18.9458 15.4919 18.6307C16.0154 18.3153 16.2771 17.8211 16.2771 17.1481C16.2771 16.5921 16.0923 16.1513 15.7225 15.8255C15.3528 15.4998 14.6227 15.1325 13.5324 14.7235C12.4524 14.3325 11.6821 13.9297 11.2213 13.515C10.7604 13.1003 10.53 12.5412 10.53 11.8375C10.53 11.2398 10.759 10.7017 11.2169 10.2232C11.6746 9.74466 12.335 9.44756 13.198 9.33189V8.2023H14.0664V9.33189C14.5925 9.37013 15.0773 9.5314 15.5208 9.81569C15.9641 10.1 16.3188 10.4728 16.5849 10.9342L15.844 11.2395C15.5998 10.8757 15.2997 10.586 14.9438 10.3703C14.5878 10.1548 14.1595 10.047 13.659 10.047C12.9826 10.047 12.4346 10.2179 12.015 10.5596C11.5955 10.9014 11.3857 11.3273 11.3857 11.8375C11.3857 12.3586 11.5464 12.7604 11.8678 13.043C12.1893 13.3257 12.8966 13.6607 13.9897 14.048C15.169 14.4795 15.9833 14.9243 16.4328 15.3825C16.8824 15.8407 17.1072 16.4292 17.1072 17.1481C17.1072 17.5898 17.0159 17.9751 16.8332 18.3041C16.6506 18.6332 16.4148 18.9087 16.126 19.1308C15.8372 19.353 15.5087 19.5248 15.1405 19.646C14.7723 19.7671 14.3976 19.8365 14.0166 19.8541V21H13.1482ZM3.66667 14.1193C3.75599 12.7864 4.08066 11.5632 4.64067 10.4495C5.20085 9.33565 5.93112 8.37261 6.83149 7.56036C7.73186 6.7481 8.76313 6.11831 9.92533 5.67099C11.0875 5.22366 12.3155 5 13.6091 5C15.5963 5 17.4373 5.55875 19.1321 6.67627C20.8269 7.79362 22.0575 9.24766 22.8237 11.0384V7.58435H23.6667V12.384H18.6859V11.5719H22.1652C21.5438 9.95632 20.436 8.59251 18.842 7.48044C17.2478 6.36837 15.5035 5.81233 13.6091 5.81233C12.4499 5.81233 11.3375 6.01648 10.2717 6.42477C9.20585 6.83321 8.26115 7.40245 7.43765 8.13247C6.61416 8.86233 5.93942 9.7357 5.41345 10.7526C4.88747 11.7693 4.58622 12.8915 4.50968 14.1193H3.66667Z" fill="black"/>
</g>
</svg>
