<svg width="14" height="14" viewBox="0 0 14 14" fill="none" xmlns="http://www.w3.org/2000/svg">
<path d="M10.2904 7.9968L10.2964 8.00283L7.0016 11.2934L2.18202 6.48002C1.27266 5.57184 1.27266 4.09862 2.18202 3.19045C3.09236 2.28128 4.56786 2.28103 5.47921 3.18969C5.47922 3.18971 5.47924 3.18972 5.47926 3.18974C5.47932 3.18981 5.47938 3.18987 5.47945 3.18993L6.64375 4.35273L6.99708 4.70559L7.3504 4.35273L8.52325 3.1814C9.41214 2.29366 10.8419 2.27334 11.7556 3.12043L11.8175 3.18227C12.7275 4.09042 12.7275 5.56346 11.8175 6.4716L11.8174 6.47172L10.6446 7.64305L10.2904 7.9968Z" fill="#FF6861" stroke="#FF6861"/>
</svg>
