<svg width="24" height="24" viewBox="0 0 24 24" fill="none" xmlns="http://www.w3.org/2000/svg">
<mask id="mask0_66_2601" style="mask-type:alpha" maskUnits="userSpaceOnUse" x="0" y="0" width="24" height="24">
<rect width="24" height="24" fill="#D9D9D9"/>
</mask>
<g mask="url(#mask0_66_2601)">
<path d="M4.98623 19.3465C4.86573 19.3465 4.76523 19.306 4.68473 19.225C4.60406 19.1441 4.56373 19.0435 4.56373 18.9232V17.9027H3.92398C3.38131 17.9027 2.92514 17.7179 2.55548 17.3482C2.18581 16.9785 2.00098 16.5224 2.00098 15.9797V10.6437C2.00098 10.0002 2.20398 9.52696 2.60998 9.22396C3.01614 8.92096 3.43789 8.76946 3.87523 8.76946V7.10521C3.87523 6.56854 4.05348 6.12196 4.40998 5.76546C4.76631 5.40912 5.21289 5.23096 5.74973 5.23096H18.2562C18.7929 5.23096 19.2388 5.40912 19.594 5.76546C19.9491 6.12196 20.1267 6.56854 20.1267 7.10521V8.76946C20.6189 8.76946 21.0543 8.93054 21.433 9.25271C21.8116 9.57504 22.001 10.0387 22.001 10.6437V15.9797C22.001 16.5224 21.8161 16.9785 21.4465 17.3482C21.0768 17.7179 20.6206 17.9027 20.078 17.9027H19.4382V18.9232C19.4382 19.0435 19.4043 19.1441 19.3365 19.225C19.2688 19.306 19.1747 19.3465 19.0542 19.3465C18.9337 19.3465 18.833 19.306 18.752 19.225C18.671 19.1441 18.6305 19.0435 18.6305 18.9232V17.9027H5.40998V18.9232C5.40998 19.0442 5.36948 19.145 5.28848 19.2255C5.20748 19.3061 5.10673 19.3465 4.98623 19.3465ZM3.92398 17.0567H20.078C20.3775 17.0567 20.6318 16.9521 20.841 16.743C21.0501 16.5336 21.1547 16.2792 21.1547 15.9797V10.6482C21.1547 10.3542 21.0561 10.1086 20.859 9.91146C20.6618 9.71429 20.4156 9.61571 20.1202 9.61571C19.8249 9.61571 19.5807 9.71429 19.3877 9.91146C19.1949 10.1086 19.0985 10.3527 19.0985 10.6437V14.2695H4.90348V10.6437C4.90348 10.3527 4.80706 10.1086 4.61423 9.91146C4.42123 9.71429 4.17706 9.61571 3.88173 9.61571C3.58639 9.61571 3.34014 9.71429 3.14298 9.91146C2.94581 10.1086 2.84723 10.3542 2.84723 10.6482V15.9797C2.84723 16.2792 2.95181 16.5336 3.16098 16.743C3.37014 16.9521 3.62448 17.0567 3.92398 17.0567ZM5.74973 13.4232H18.2522V10.6437C18.2522 10.2647 18.3499 9.92796 18.5452 9.63346C18.7406 9.33912 18.9856 9.11862 19.2805 8.97196V7.10521C19.2805 6.80571 19.1819 6.55946 18.9847 6.36646C18.7874 6.17362 18.5446 6.07721 18.2565 6.07721H5.74548C5.45731 6.07721 5.21456 6.17362 5.01723 6.36646C4.82006 6.55946 4.72148 6.80571 4.72148 7.10521V8.97196C5.01631 9.11862 5.26139 9.33912 5.45673 9.63346C5.65206 9.92796 5.74973 10.2647 5.74973 10.6437V13.4232Z" fill="black"/>
</g>
</svg>
