<svg width="40" height="14" viewBox="0 0 40 14" fill="none" xmlns="http://www.w3.org/2000/svg">
<path d="M13.6467 6.76937C13.6467 8.10817 13.2465 9.41689 12.4967 10.53C11.747 11.6432 10.6813 12.5108 9.43457 13.0231C8.18781 13.5355 6.81592 13.6695 5.49237 13.4084C4.16881 13.1472 2.95304 12.5026 1.99877 11.5559C1.2053 10.7688 0.619767 9.79965 0.294021 8.73436C-0.0317249 7.66908 -0.0876233 6.54054 0.131277 5.44871C0.350177 4.35688 0.83712 3.33545 1.54897 2.47492C2.26082 1.61438 3.17561 0.941295 4.2123 0.515283C5.24898 0.0892708 6.37558 -0.0765189 7.49228 0.0325999C8.60898 0.141719 9.68132 0.522378 10.6143 1.14086C11.5473 1.75934 12.3121 2.59655 12.8411 3.57833C13.37 4.56011 13.6467 5.65615 13.6467 6.76937ZM7.96468 3.58784V6.99099L5.57653 3.58784H3.6166V9.95939H5.68057V6.54598L8.06873 9.95085H10.0355V3.58784H7.96468ZM38.3922 3.23423L36.4884 7.53798L34.3347 3.23423H32.6789L35.7288 9.20521L34.4716 12.0031H36.0796L40.0002 3.24263L38.3922 3.23423ZM31.6206 9.88932H30.0469V9.26796C29.4745 9.76574 28.7365 10.0355 27.9754 10.0252C26.0937 10.0252 24.621 8.49717 24.621 6.56177C24.621 4.62632 26.092 3.0984 27.9754 3.0984C28.7363 3.08757 29.4742 3.35671 30.0469 3.85388V3.23423H31.6206V9.88932ZM30.2316 6.57025C30.2316 5.31563 29.349 4.36321 28.179 4.36321C27.0089 4.36321 26.1262 5.31563 26.1262 6.57025C26.1262 7.82487 27.0072 8.77729 28.1789 8.77729C29.3507 8.77729 30.2316 7.8164 30.2316 6.57025ZM16.8382 12.0029H18.4804V9.32401C19.0422 9.78768 19.7528 10.0364 20.4835 10.0252C22.3651 10.0252 23.8396 8.49717 23.8396 6.56177C23.8396 4.62632 22.3668 3.0984 20.4835 3.0984C19.7206 3.0848 18.98 3.35421 18.4068 3.85388V3.23423H16.8331L16.8382 12.0029ZM20.2884 4.36314C21.4585 4.36314 22.3412 5.31556 22.3412 6.57018C22.3412 7.82481 21.4585 8.77723 20.2884 8.77723C19.1185 8.77723 18.2358 7.82481 18.2358 6.57018C18.2358 5.31556 19.1081 4.36314 20.2884 4.36314Z" fill="#00DE5A"/>
</svg>
