<svg width="23" height="18" viewBox="0 0 23 18" fill="none" xmlns="http://www.w3.org/2000/svg">
<g id="Group 1000004040">
<path id="heart_plus" d="M10.3684 18L9.31418 17.0231C7.53779 15.3583 6.06959 13.9425 4.90961 12.7756C3.74944 11.6087 2.82974 10.5768 2.15052 9.67998C1.47129 8.78314 0.998618 7.97582 0.732502 7.25801C0.466386 6.54019 0.333328 5.80411 0.333328 5.04974C0.333328 3.63296 0.806743 2.43714 1.75357 1.46229C2.7004 0.48743 3.87089 0 5.26502 0C6.26946 0 7.20579 0.268167 8.07401 0.804498C8.94223 1.34083 9.70704 2.12507 10.3684 3.15722C11.0661 2.10679 11.8414 1.31793 12.6946 0.790647C13.5478 0.26355 14.4738 0 15.4727 0C16.7481 0 17.8391 0.432872 18.7458 1.29862C19.6523 2.16417 20.1799 3.23118 20.3285 4.49965H19.4073C19.2842 3.48974 18.8606 2.6468 18.1364 1.97082C17.412 1.29485 16.5238 0.956861 15.4718 0.956861C14.5573 0.956861 13.7141 1.22588 12.9422 1.7639C12.1702 2.30193 11.4631 3.13319 10.8208 4.25768H9.89733C9.25453 3.1313 8.54817 2.29958 7.77826 1.76249C7.00815 1.2254 6.17041 0.956861 5.26502 0.956861C4.13236 0.956861 3.1845 1.34714 2.42146 2.12771C1.65843 2.90827 1.27691 3.88228 1.27691 5.04974C1.27691 5.72288 1.41145 6.39386 1.68054 7.06268C1.94982 7.7313 2.42425 8.50112 3.10385 9.37214C3.78326 10.243 4.71263 11.263 5.89194 12.4321C7.07125 13.6015 8.56341 15.0278 10.3684 16.7113C10.964 16.1542 11.5206 15.6389 12.0382 15.1653C12.5555 14.6917 13.0503 14.2293 13.5225 13.7779L13.6296 13.8834C13.7007 13.9535 13.7774 14.0315 13.8595 14.1174C13.9419 14.2034 14.0186 14.2815 14.0898 14.3518L14.1965 14.4572C13.7258 14.8988 13.2353 15.3511 12.725 15.8143C12.2147 16.2776 11.6627 16.7891 11.0689 17.349L10.3684 18ZM17.9591 14.4383V10.9591H14.5283V10.0025H17.9591V6.52333H18.9024V10.0025H22.3333V10.9591H18.9024V14.4383H17.9591Z" fill="black"/>
</g>
</svg>
