<svg width="24" height="24" viewBox="0 0 24 24" fill="none" xmlns="http://www.w3.org/2000/svg">
<mask id="mask0_66_2606" style="mask-type:alpha" maskUnits="userSpaceOnUse" x="0" y="0" width="24" height="24">
<rect width="24" height="24" fill="#D9D9D9"/>
</mask>
<g mask="url(#mask0_66_2606)">
<path d="M4.923 16.7514V18.4612C4.923 18.5888 4.8825 18.6958 4.8015 18.782C4.72033 18.8685 4.61983 18.9117 4.5 18.9117H4.423C4.30317 18.9117 4.20275 18.8685 4.12175 18.782C4.04058 18.6958 4 18.5888 4 18.4612V10.6064L5.9885 4.45055C6.03467 4.31048 6.11792 4.20033 6.23825 4.12009C6.35842 4.04003 6.49008 4 6.63325 4H17.4435C17.5767 4 17.6934 4.03985 17.7938 4.11956C17.8941 4.19909 17.9667 4.30942 18.0115 4.45055L20 10.6064V18.4612C20 18.5888 19.9594 18.6958 19.8783 18.782C19.7973 18.8685 19.6968 18.9117 19.577 18.9117H19.4963C19.3699 18.9117 19.2684 18.8685 19.1918 18.782C19.1153 18.6958 19.077 18.5888 19.077 18.4612V16.7514H4.923ZM5.1885 9.70533H18.8115L17.2373 4.90136H6.76275L5.1885 9.70533ZM7.31625 14.3754C7.61775 14.3754 7.87117 14.2629 8.0765 14.038C8.28183 13.8131 8.3845 13.543 8.3845 13.2277C8.3845 12.9023 8.279 12.6299 8.068 12.4105C7.85683 12.1911 7.60458 12.0813 7.31125 12.0813C7.00858 12.0813 6.75283 12.1923 6.544 12.4142C6.33517 12.6359 6.23075 12.9089 6.23075 13.233C6.23075 13.5572 6.33633 13.8286 6.5475 14.0473C6.7585 14.266 7.01475 14.3754 7.31625 14.3754ZM16.7018 14.3754C17.0019 14.3754 17.2555 14.2629 17.4625 14.038C17.6695 13.8131 17.773 13.543 17.773 13.2277C17.773 12.9023 17.6683 12.6299 17.459 12.4105C17.2498 12.1911 16.9957 12.0813 16.6965 12.0813C16.3975 12.0813 16.1433 12.1923 15.9338 12.4142C15.7241 12.6359 15.6193 12.9089 15.6193 13.233C15.6193 13.5572 15.7269 13.8286 15.9423 14.0473C16.1578 14.266 16.4109 14.3754 16.7018 14.3754ZM4.84625 15.8503H19.1538V10.6064H4.84625V15.8503Z" fill="black"/>
</g>
</svg>
