<svg width="24" height="24" viewBox="0 0 24 24" fill="none" xmlns="http://www.w3.org/2000/svg">
<mask id="mask0_66_2609" style="mask-type:alpha" maskUnits="userSpaceOnUse" x="0" y="0" width="24" height="24">
<rect width="24" height="24" fill="#D9D9D9"/>
</mask>
<g mask="url(#mask0_66_2609)">
<path d="M9.4025 21C8.71833 21 8.15033 20.7745 7.6985 20.3235C7.2465 19.8725 7.0205 19.3008 7.0205 18.6085C7.0205 18.3135 7.00267 18.0398 6.967 17.7873C6.93133 17.5346 6.85775 17.3568 6.74625 17.2538C6.64325 17.1423 6.46542 17.0623 6.21275 17.0138C5.96025 16.9653 5.6865 16.941 5.3915 16.941C4.69917 16.941 4.1275 16.7215 3.6765 16.2825C3.2255 15.8433 3 15.2795 3 14.591C3 13.9025 3.2255 13.3323 3.6765 12.8805C4.1275 12.4285 4.70025 12.2025 5.39475 12.2025C5.72175 12.2025 6.022 12.254 6.2955 12.357C6.569 12.46 6.78033 12.5795 6.9295 12.7155C7.1175 12.8565 7.33008 12.927 7.56725 12.927C7.80442 12.927 8.00208 12.8437 8.16025 12.677L12.6 8.23725C12.7667 8.07908 12.8628 7.86967 12.8885 7.609C12.9142 7.34833 12.8565 7.12183 12.7155 6.9295C12.5948 6.7675 12.4792 6.553 12.3685 6.286C12.2578 6.01883 12.2025 5.72175 12.2025 5.39475C12.2025 4.70025 12.428 4.1275 12.879 3.6765C13.33 3.2255 13.9028 3 14.5975 3C15.2817 3 15.8497 3.2255 16.3015 3.6765C16.7535 4.1275 16.9795 4.69917 16.9795 5.3915C16.9795 5.6865 16.9973 5.96025 17.033 6.21275C17.0687 6.46542 17.1423 6.64325 17.2538 6.74625C17.3568 6.85775 17.5346 6.93133 17.7873 6.967C18.0398 7.00267 18.3135 7.0205 18.6085 7.0205C19.3008 7.0205 19.8725 7.2465 20.3235 7.6985C20.7745 8.15033 21 8.7205 21 9.409C21 10.0975 20.7745 10.6677 20.3235 11.1195C19.8725 11.5715 19.2998 11.7975 18.6053 11.7975C18.2783 11.7975 17.9812 11.7422 17.714 11.6315C17.447 11.5208 17.2325 11.4052 17.0705 11.2845C16.8782 11.1563 16.6581 11.1019 16.4103 11.1213C16.1624 11.1404 15.9594 11.2333 15.8013 11.4L11.4 15.8013C11.2333 15.9594 11.1372 16.1528 11.1115 16.3815C11.0858 16.61 11.1308 16.8268 11.2463 17.032C11.3564 17.194 11.4758 17.4149 11.6045 17.6947C11.7332 17.9748 11.7975 18.2783 11.7975 18.6053C11.7975 19.2998 11.572 19.8725 11.121 20.3235C10.67 20.7745 10.0972 21 9.4025 21ZM9.409 20.15C9.84983 20.15 10.2171 20.0049 10.5108 19.7148C10.8044 19.4246 10.9513 19.0548 10.9513 18.6053C10.9513 18.3851 10.9102 18.1826 10.828 17.9978C10.7457 17.8129 10.659 17.6526 10.568 17.5168C10.3153 17.1619 10.207 16.7697 10.243 16.34C10.2788 15.9103 10.4623 15.5299 10.7935 15.1988L15.1948 10.7975C15.5128 10.465 15.8891 10.2843 16.3238 10.2555C16.7584 10.2267 17.1561 10.3308 17.5168 10.568C17.6526 10.659 17.8129 10.7457 17.9978 10.828C18.1826 10.9102 18.3851 10.9513 18.6053 10.9513C19.0526 10.9513 19.4225 10.805 19.715 10.5125C20.0075 10.22 20.1538 9.85 20.1538 9.4025C20.1538 8.966 20.0075 8.60092 19.715 8.30725C19.4225 8.01358 19.0526 7.86675 18.6053 7.86675C18.1731 7.86675 17.7876 7.832 17.4488 7.7625C17.1099 7.693 16.8428 7.55633 16.6475 7.3525C16.4437 7.15717 16.307 6.89008 16.2375 6.55125C16.168 6.21242 16.1333 5.82692 16.1333 5.39475C16.1333 4.94742 15.9864 4.5775 15.6928 4.285C15.3991 3.9925 15.0318 3.84625 14.591 3.84625C14.1502 3.84625 13.7829 3.9925 13.4893 4.285C13.1956 4.5775 13.0488 4.94742 13.0488 5.39475C13.0488 5.60625 13.0896 5.80658 13.1713 5.99575C13.2528 6.18492 13.3397 6.34742 13.432 6.48325C13.6847 6.83808 13.793 7.23033 13.757 7.66C13.7212 8.08967 13.5377 8.47008 13.2065 8.80125L8.818 13.2025C8.49117 13.536 8.1105 13.7169 7.676 13.7453C7.2415 13.7736 6.84392 13.6692 6.48325 13.432C6.34742 13.341 6.18708 13.2543 6.00225 13.172C5.81742 13.0898 5.61492 13.0488 5.39475 13.0488C4.94525 13.0488 4.57542 13.195 4.28525 13.4875C3.99508 13.78 3.85 14.15 3.85 14.5975C3.85 15.034 3.99508 15.3927 4.28525 15.6735C4.57542 15.9545 4.94525 16.095 5.39475 16.095C5.82692 16.095 6.21242 16.1361 6.55125 16.2183C6.89008 16.3006 7.15717 16.4437 7.3525 16.6475C7.55633 16.8428 7.693 17.1163 7.7625 17.468C7.832 17.8197 7.86675 18.2115 7.86675 18.6435C7.86675 19.0932 8.01358 19.4567 8.30725 19.734C8.60092 20.0113 8.96817 20.15 9.409 20.15Z" fill="black"/>
</g>
</svg>
