<svg width="19" height="19" viewBox="0 0 19 19" fill="none" xmlns="http://www.w3.org/2000/svg">
<g id="Group 1000004042">
<path id="Vector" d="M4.88426 9.52213H1.3335V18.0439H4.88426V9.52213Z" stroke="black" stroke-width="0.8" stroke-miterlimit="10"/>
<path id="Vector_2" d="M17.6657 7.91825C17.6657 6.90809 16.804 6.08983 15.7401 6.08983H10.2099L10.3865 3.0666C10.4488 2.13851 9.81203 1.29731 8.86512 1.05715C7.92583 0.819391 6.96112 1.34921 6.71072 2.24109L4.88425 9.56201V18.044H8.05547H14.3115C15.3753 18.044 16.2371 17.2257 16.2371 16.2155C16.2371 15.7738 16.0718 15.3683 15.7973 15.0533C16.3705 14.7371 16.7569 14.1481 16.7569 13.4735C16.7569 13.1283 16.654 12.8073 16.4798 12.5321C17.0353 12.2111 17.4064 11.633 17.4064 10.9704C17.4064 10.3827 17.1128 9.86011 16.6591 9.52581C17.259 9.21564 17.667 8.6122 17.667 7.91825H17.6657Z" stroke="black" stroke-width="0.8" stroke-miterlimit="10"/>
</g>
</svg>
