<svg width="24" height="24" viewBox="0 0 24 24" fill="none" xmlns="http://www.w3.org/2000/svg">
<mask id="mask0_66_2602" style="mask-type:alpha" maskUnits="userSpaceOnUse" x="0" y="0" width="24" height="24">
<rect width="24" height="24" fill="#D9D9D9"/>
</mask>
<g mask="url(#mask0_66_2602)">
<path d="M3 18.383V12.9277C3 12.6268 3.084 12.2981 3.252 11.9417C3.41983 11.5854 3.66917 11.3264 4 11.1647V8.6848C4 8.11584 4.18225 7.63725 4.54675 7.24901C4.91125 6.86077 5.36058 6.66666 5.89475 6.66666H10.5488C10.8824 6.66666 11.1698 6.74645 11.411 6.90604C11.652 7.06546 11.8483 7.28106 12 7.55284C12.1517 7.28106 12.3474 7.06546 12.5873 6.90604C12.8269 6.74645 13.1137 6.66666 13.4475 6.66666H18.1013C18.6354 6.66666 19.0854 6.86077 19.4513 7.24901C19.8171 7.63725 20 8.11584 20 8.6848V11.1647C20.3308 11.3264 20.5802 11.5854 20.748 11.9417C20.916 12.2981 21 12.6268 21 12.9277V18.383H20.1538V16.2528H3.84625V18.383H3ZM12.423 10.9612H19.1538V8.6848C19.1538 8.36579 19.0511 8.09987 18.8458 7.88702C18.6404 7.67435 18.3923 7.56802 18.1013 7.56802H13.423C13.1397 7.56802 12.9022 7.67799 12.7105 7.89794C12.5188 8.11806 12.423 8.38035 12.423 8.6848V10.9612ZM4.84625 10.9612H11.577V8.6848C11.577 8.38035 11.4812 8.11806 11.2895 7.89794C11.0978 7.67799 10.8603 7.56802 10.577 7.56802H5.89475C5.60642 7.56802 5.35958 7.67737 5.15425 7.89607C4.94892 8.11478 4.84625 8.37769 4.84625 8.6848V10.9612ZM3.84625 15.3514H20.1538V12.9277C20.1538 12.635 20.0579 12.3842 19.8663 12.1755C19.6746 11.9669 19.4371 11.8626 19.1538 11.8626H4.84625C4.56292 11.8626 4.32542 11.9669 4.13375 12.1755C3.94208 12.3842 3.84625 12.635 3.84625 12.9277V15.3514Z" fill="black"/>
</g>
</svg>
