<svg width="26" height="26" viewBox="0 0 26 26" fill="none" xmlns="http://www.w3.org/2000/svg">
<g id="ic_reservation_tabbar_selected">
<path id="Vector" d="M4.92 6.59V6.58956C4.92276 5.65696 5.29445 4.76335 5.9539 4.1039C6.61335 3.44445 7.50696 3.07276 8.43956 3.07L8.44 3.07L17.56 3.07H17.5604C18.493 3.07276 19.3867 3.44445 20.0461 4.1039C20.7056 4.76335 21.0772 5.65696 21.08 6.58956L21.08 6.59V22.2797V22.28H20.93C20.9302 22.3737 20.904 22.4656 20.8545 22.5452C20.805 22.6247 20.7342 22.6888 20.65 22.73L4.92 6.59ZM4.92 6.59V22.2799M4.92 6.59L20.723 22.8612C20.6227 22.9223 20.5075 22.9547 20.39 22.9547C20.2699 22.9547 20.1522 22.9209 20.0504 22.8571L20.0401 22.8507L20.0404 22.8503L12.9997 17.6068L5.95916 22.8106L5.95372 22.8147L5.95363 22.8145C5.84081 22.8903 5.70789 22.9305 5.57204 22.93M5.57204 22.93C5.47136 22.9331 5.37158 22.9103 5.28219 22.8638C5.17359 22.8102 5.08212 22.7273 5.01811 22.6244C4.95378 22.521 4.91979 22.4016 4.92 22.2799M5.57204 22.93C5.57094 22.93 5.56983 22.93 5.56873 22.93L5.57 22.78L5.57537 22.9299C5.57426 22.9299 5.57315 22.93 5.57204 22.93ZM4.92 22.2799C4.92 22.2798 4.92 22.2798 4.92 22.2797L5.07 22.28H4.92V22.2799ZM19.78 20.9926L13.3892 16.2694L13.3882 16.2687C13.2754 16.1866 13.1395 16.1424 13 16.1424C12.8605 16.1424 12.7246 16.1866 12.6118 16.2687L12.6108 16.2694L6.22 20.9926V6.59032C6.22255 6.00225 6.45729 5.43898 6.87313 5.02313C7.28897 4.60729 7.85224 4.37255 8.44032 4.37H17.5597C18.1478 4.37255 18.711 4.60729 19.1269 5.02313C19.5427 5.43899 19.7775 6.0023 19.78 6.59041C19.78 6.59048 19.78 6.59056 19.78 6.59063L19.78 20.9926Z" fill="#18CCB6" stroke="#18CCB6" stroke-width="0.3"/>
</g>
</svg>
