<svg width="26" height="26" viewBox="0 0 26 26" fill="none" xmlns="http://www.w3.org/2000/svg">
<g id="ic_station">
<path id="tram" d="M6 17.9605V8.44706C6 7.21654 6.58075 6.41299 7.74225 6.03641C8.90375 5.66 10.5012 5.45829 12.5345 5.43129L13.2922 3.83339H8.077V3H17.923V3.83339H14.2155L13.4655 5.43129C15.377 5.45829 16.9439 5.6612 18.1663 6.04002C19.3888 6.41901 20 7.22136 20 8.44706V17.9605C20 18.7898 19.7202 19.4931 19.1605 20.0704C18.601 20.6478 17.9193 20.9365 17.1155 20.9365L18.6155 22.4841V23H17.8462L15.8462 20.9365H10.1537L8.15375 23H7.3845V22.4841L8.8845 20.9365C8.08067 20.9365 7.399 20.6478 6.8395 20.0704C6.27983 19.4931 6 18.7898 6 17.9605ZM13.0243 18.4472C13.3247 18.4472 13.5783 18.3383 13.785 18.1206C13.9915 17.9031 14.0947 17.6393 14.0947 17.3293C14.0947 17.0194 13.9915 16.7579 13.785 16.5447C13.5783 16.3314 13.3247 16.2248 13.0243 16.2248C12.7239 16.2248 12.4683 16.3314 12.2573 16.5447C12.0464 16.7579 11.941 17.0194 11.941 17.3293C11.941 17.6393 12.0464 17.9031 12.2573 18.1206C12.4683 18.3383 12.7239 18.4472 13.0243 18.4472ZM6.84625 13.7646H19.15V8.87704H6.84625V13.7646ZM8.836 20.0345H17.1602C17.7157 20.0345 18.1862 19.8321 18.5717 19.4273C18.9572 19.0226 19.15 18.5336 19.15 17.9605V14.6375H6.84625V17.9605C6.84625 18.5336 7.03958 19.0226 7.42625 19.4273C7.81308 19.8321 8.283 20.0345 8.836 20.0345ZM13.0128 6.3044C11.0086 6.3044 9.51525 6.44231 8.53275 6.71813C7.55025 6.99378 6.98508 7.42246 6.83725 8.00419H19.1217C18.9654 7.46098 18.4058 7.04184 17.443 6.74676C16.4802 6.45185 15.0034 6.3044 13.0128 6.3044Z" fill="white"/>
</g>
</svg>
