<svg width="26" height="26" viewBox="0 0 26 26" fill="none" xmlns="http://www.w3.org/2000/svg">
<g id="ic_search_tabbar_selected">
<path id="icon" fill-rule="evenodd" clip-rule="evenodd" d="M5.99765 11.4717C5.99765 15.0459 8.89513 17.9434 12.4693 17.9434C16.0435 17.9434 18.941 15.0459 18.941 11.4717C18.941 7.89748 16.0435 5 12.4693 5C8.89513 5 5.99765 7.89748 5.99765 11.4717ZM3.99765 11.4717C3.99765 16.1505 7.79055 19.9434 12.4693 19.9434C14.4484 19.9434 16.269 19.2648 17.711 18.1276L21.2929 21.7094C21.6834 22.1 22.3166 22.1 22.7071 21.7095C23.0976 21.3189 23.0976 20.6858 22.7071 20.2952L19.1252 16.7133C20.2624 15.2713 20.941 13.4507 20.941 11.4717C20.941 6.79291 17.1481 3 12.4693 3C7.79055 3 3.99765 6.79291 3.99765 11.4717Z" fill="#18CCB6"/>
</g>
</svg>
