<svg width="26" height="26" viewBox="0 0 26 26" fill="none" xmlns="http://www.w3.org/2000/svg">
<g id="ic_topprice">
<path id="currency_exchange" d="M12.5547 21C10.6304 21 8.88145 20.4442 7.30782 19.3327C5.73418 18.2212 4.56519 16.7883 3.80085 15.0341V18.415H3V13.6143H7.73178V14.4265H4.4264C5.0532 16.0999 6.12337 17.4785 7.63691 18.5622C9.15045 19.6457 10.7897 20.1875 12.5547 20.1875C13.7045 20.1875 14.7866 19.9771 15.8011 19.5564C16.8156 19.1355 17.71 18.5539 18.4843 17.8116C19.2586 17.0691 19.8864 16.1893 20.3678 15.1723C20.8493 14.1554 21.1264 13.0574 21.1991 11.8785H22C21.9393 13.1501 21.649 14.3398 21.1291 15.4477C20.6092 16.5555 19.9277 17.5218 19.0845 18.3466C18.2413 19.1714 17.2585 19.8198 16.1361 20.2919C15.0139 20.764 13.8201 21 12.5547 21ZM12.1167 17.8008V16.6066C11.4853 16.4528 10.9399 16.2 10.4802 15.8481C10.0206 15.4962 9.63956 14.9982 9.33704 14.3541L10.0674 14.0463C10.3295 14.6335 10.692 15.0899 11.1548 15.4155C11.6177 15.741 12.1328 15.9037 12.7002 15.9037C13.2984 15.9037 13.8461 15.7461 14.3433 15.4309C14.8406 15.1155 15.0892 14.6211 15.0892 13.9479C15.0892 13.3918 14.9136 12.9509 14.5623 12.6251C14.2111 12.2992 13.5176 11.9318 12.4818 11.5228C11.4558 11.1317 10.7239 10.7288 10.2862 10.314C9.84839 9.89919 9.62946 9.33989 9.62946 8.6361C9.62946 8.03825 9.84697 7.5 10.282 7.02136C10.7168 6.54273 11.3442 6.24556 12.164 6.12986V5H12.989V6.12986C13.4889 6.16811 13.9494 6.32941 14.3707 6.61378C14.7918 6.89814 15.1288 7.27108 15.3817 7.7326L14.6778 8.03793C14.4458 7.67403 14.1607 7.38422 13.8225 7.16851C13.4844 6.95295 13.0775 6.84518 12.602 6.84518C11.9594 6.84518 11.4388 7.01608 11.0402 7.3579C10.6417 7.69971 10.4424 8.12578 10.4424 8.6361C10.4424 9.1573 10.5951 9.55921 10.9004 9.84182C11.2058 10.1246 11.8777 10.4597 12.9162 10.8471C14.0365 11.2787 14.8101 11.7236 15.2371 12.1819C15.6642 12.6403 15.8778 13.2289 15.8778 13.9479C15.8778 14.3897 15.791 14.7752 15.6175 15.1042C15.444 15.4333 15.2201 15.709 14.9456 15.9311C14.6713 16.1534 14.3593 16.3252 14.0094 16.4465C13.6596 16.5676 13.3037 16.637 12.9417 16.6546V17.8008H12.1167Z" fill="black"/>
</g>
</svg>
