<svg width="24" height="24" viewBox="0 0 24 24" fill="none" xmlns="http://www.w3.org/2000/svg">
<mask id="mask0_66_3749" style="mask-type:alpha" maskUnits="userSpaceOnUse" x="0" y="0" width="24" height="24">
<rect width="24" height="24" fill="#D9D9D9"/>
</mask>
<g mask="url(#mask0_66_3749)">
<path d="M11 20.4308C9.12433 20.1871 7.57208 19.3608 6.34325 17.952C5.11442 16.543 4.5 14.8923 4.5 13C4.5 11.9833 4.70067 11.0093 5.102 10.078C5.50333 9.1465 6.0655 8.32817 6.7885 7.623L7.85775 8.69225C7.24358 9.25259 6.78042 9.90292 6.46825 10.6433C6.15608 11.3836 6 12.1692 6 13C6 14.4667 6.46825 15.7593 7.40475 16.878C8.34125 17.9965 9.53967 18.6808 11 18.9308V20.4308ZM13 20.45V18.95C14.4437 18.6577 15.6379 17.958 16.5828 16.851C17.5276 15.744 18 14.4603 18 13C18 11.3333 17.4167 9.91667 16.25 8.75C15.0833 7.58334 13.6667 7 12 7H11.6463L12.9962 8.35L11.9423 9.40375L8.7885 6.25L11.9423 3.09625L12.9962 4.15L11.6463 5.5H12C14.0923 5.5 15.8654 6.22692 17.3193 7.68075C18.7731 9.13459 19.5 10.9077 19.5 13C19.5 14.882 18.884 16.5243 17.652 17.927C16.4198 19.3295 14.8692 20.1705 13 20.45Z" fill="#1C1B1F"/>
</g>
</svg>
