<svg width="24" height="24" viewBox="0 0 24 24" fill="none" xmlns="http://www.w3.org/2000/svg">
<mask id="mask0_66_2608" style="mask-type:alpha" maskUnits="userSpaceOnUse" x="0" y="0" width="24" height="24">
<rect width="24" height="24" fill="#D9D9D9"/>
</mask>
<g mask="url(#mask0_66_2608)">
<path d="M7.06475 10.188C6.65792 10.188 6.31467 10.0393 6.035 9.74173C5.75533 9.44403 5.6155 9.08624 5.6155 8.66835C5.6155 8.2487 5.75467 7.88318 6.033 7.57181C6.3115 7.26044 6.65417 7.10475 7.061 7.10475C7.46783 7.10475 7.81108 7.25902 8.09075 7.56755C8.37042 7.87608 8.51025 8.24097 8.51025 8.66223C8.51025 9.08366 8.371 9.44332 8.0925 9.7412C7.81417 10.0391 7.47158 10.188 7.06475 10.188ZM5.5125 21.8389C5.22517 21.8389 4.97817 21.7323 4.7715 21.5191C4.56483 21.3057 4.4615 21.0436 4.4615 20.7327C4.05017 20.7327 3.70375 20.5746 3.42225 20.2582C3.14075 19.9417 3 19.5673 3 19.135V14.2192H5.6155V13.4252C5.6155 12.8793 5.79342 12.41 6.14925 12.0171C6.50525 11.6244 6.9405 11.4281 7.455 11.4281C7.74733 11.4281 8.02875 11.4988 8.29925 11.6403C8.56992 11.7818 8.80775 11.9768 9.01275 12.2253L10 13.475C10.1222 13.6209 10.2457 13.7548 10.3707 13.8765C10.4957 13.9981 10.632 14.1124 10.7795 14.2192H18.1538V5.15052C18.1538 4.72341 18.0237 4.35283 17.7635 4.0388C17.5033 3.72494 17.177 3.56802 16.7845 3.56802C16.5932 3.56802 16.4097 3.60432 16.2343 3.67692C16.0589 3.74953 15.9035 3.85791 15.768 4.00205L14.5103 5.38618C14.5851 5.69489 14.5968 6.00271 14.5455 6.30964C14.4942 6.61657 14.3935 6.90389 14.2435 7.17159L12.2553 5.05626C12.4999 4.88122 12.7622 4.76939 13.042 4.72074C13.3217 4.6721 13.6017 4.70379 13.882 4.81581L15.1398 3.44499C15.3603 3.20232 15.6108 3.01193 15.8915 2.87382C16.172 2.73571 16.4697 2.66666 16.7845 2.66666C17.4065 2.66666 17.9312 2.91128 18.3588 3.40053C18.7863 3.88959 19 4.47293 19 5.15052V14.2192H21V19.135C21 19.5673 20.8593 19.9417 20.5778 20.2582C20.2962 20.5746 19.9498 20.7327 19.5385 20.7327C19.5385 21.0436 19.4349 21.3057 19.2278 21.5191C19.0206 21.7323 18.7733 21.8389 18.486 21.8389H5.5125ZM4.4615 19.8316H19.5385C19.718 19.8316 19.8654 19.7633 19.9808 19.6266C20.0961 19.4901 20.1538 19.3262 20.1538 19.135V15.1203H3.84625V19.135C3.84625 19.3262 3.90392 19.4901 4.01925 19.6266C4.13458 19.7633 4.282 19.8316 4.4615 19.8316ZM4.4615 19.8316H3.84625H20.1538H4.4615Z" fill="black"/>
</g>
</svg>
