<svg width="24" height="24" viewBox="0 0 24 24" fill="none" xmlns="http://www.w3.org/2000/svg">
<path fill-rule="evenodd" clip-rule="evenodd" d="M1 12C2.73 7.90267 7 5 12 5C17 5 21.27 7.90267 23 12C21.27 16.0973 17 19 12 19C7 19 2.73 16.0973 1 12ZM12 17C14.7614 17 17 14.7614 17 12C17 9.23858 14.7614 7 12 7C9.23858 7 7 9.23858 7 12C7 14.7614 9.23858 17 12 17ZM12 9C10.34 9 9 10.34 9 12C9 13.4093 9.69249 14.1761 11 14.5C11.2326 14.5576 11.2493 14 11.5 14C11.5 12 13.5 13.16 13.5 11.5C13.5 11.0082 14.8824 11.0445 14.6737 10.6354C14.1779 9.66362 13.1682 9 12 9Z" fill="#CACACA"/>
<rect x="20.3848" y="1.29289" width="3" height="27" rx="1.5" transform="rotate(45 20.3848 1.29289)" fill="#CACACA" stroke="white"/>
</svg>
