<svg width="110" height="36" viewBox="0 0 110 36" fill="none" xmlns="http://www.w3.org/2000/svg">
<path d="M3.36369 7.25667H1V17.5985H8.48596V15.1956H3.36369V7.25667Z" fill="#1A1A1A"/>
<path d="M14.8981 7.00011C11.6146 7.00011 9.23082 9.28302 9.23082 12.4276C9.23082 15.5722 11.6146 17.8551 14.8981 17.8551C18.1817 17.8551 20.5645 15.5722 20.5645 12.4276C20.5645 9.28302 18.1817 7.00011 14.8981 7.00011ZM18.0162 12.4276C18.0162 14.2991 16.7053 15.6583 14.8991 15.6583C13.0928 15.6583 11.7819 14.3 11.7819 12.4276C11.7819 10.5552 13.0928 9.19686 14.8991 9.19686C16.7053 9.19686 18.0162 10.5552 18.0162 12.4276Z" fill="#1A1A1A"/>
<path d="M27.6001 9.19687C28.5897 9.19687 29.434 9.59575 30.1091 10.3809L30.1617 10.4429L31.793 8.91804L31.7461 8.85995C30.7679 7.6604 29.2543 6.99915 27.4834 6.99915C24.2248 6.99915 21.8601 9.28206 21.8601 12.4266C21.8601 15.5712 24.219 17.8541 27.4681 17.8541C29.2791 17.8541 30.7584 17.2055 31.7461 15.9778L31.793 15.9198L30.1617 14.3949L30.1091 14.4569C29.4379 15.2517 28.5936 15.6554 27.6001 15.6554C25.7212 15.6554 24.4093 14.3271 24.4093 12.4247C24.4093 10.5223 25.7212 9.19396 27.6001 9.19396V9.19687Z" fill="#1A1A1A"/>
<path d="M49.6095 17.7292H45.1413V28.166H47.5987V25.3148H49.6095C52.3748 25.3148 54.0921 23.8645 54.0921 21.5293C54.0921 19.1941 52.3748 17.7292 49.6095 17.7292ZM51.606 21.5293C51.606 22.6514 50.8506 23.269 49.4785 23.269H47.5996V19.774H49.4785C50.8698 19.774 51.606 20.381 51.606 21.5293Z" fill="#1A1A1A"/>
<path d="M95.1583 19.7169C96.1479 19.7169 96.9922 20.1157 97.6673 20.9009L97.7199 20.9629L99.3511 19.438L99.3043 19.3799C98.3261 18.1804 96.8125 17.5191 95.0416 17.5191C91.7829 17.5191 89.4183 19.8021 89.4183 22.9466C89.4183 26.0912 91.7772 28.3741 95.0273 28.3741C96.8383 28.3741 98.3175 27.7255 99.3052 26.4978L99.3521 26.4397L97.7208 24.9149L97.6683 24.9769C96.997 25.7717 96.1527 26.1754 95.1592 26.1754C93.2803 26.1754 91.9684 24.8471 91.9684 22.9447C91.9684 21.0423 93.2803 19.7139 95.1592 19.7139L95.1583 19.7169Z" fill="#1A1A1A"/>
<path d="M82.2813 17.7767L77.729 28.1195H80.151L80.893 26.3023H85.9607L86.7027 28.1195H89.1831L84.6154 17.7767H82.2804H82.2813ZM81.8874 23.908L83.4345 20.1254L84.9816 23.908H81.8874Z" fill="#1A1A1A"/>
<path d="M36.9496 7.25667L32.3972 17.5995H34.8193L35.5613 15.7823H40.629L41.371 17.5995H43.8514L39.2846 7.25667H36.9496ZM36.5557 13.388L38.1028 9.60542L39.6499 13.388H36.5557Z" fill="#1A1A1A"/>
<path d="M103.441 26.1183V23.8838H108.183V21.8633H103.441V19.7759H108.811V17.6973H100.936V28.1979H109V26.1183H103.441Z" fill="#1A1A1A"/>
<rect x="58" y="18" width="18" height="8" fill="#18CCB6"/>
<path d="M65.9392 25.7252H58.088V17.7767H55.7243V25.7252V28.1185H58.088H65.9392H76.1532V25.7252H65.9392Z" fill="#1A1A1A"/>
</svg>
