<svg width="40" height="20" viewBox="0 0 40 20" fill="none" xmlns="http://www.w3.org/2000/svg">
<path fill-rule="evenodd" clip-rule="evenodd" d="M19.2009 12.8221V9.88747H20.7155C21.3361 9.88747 21.86 9.6795 22.2871 9.26934L22.3896 9.16536C23.1696 8.31616 23.1184 6.99326 22.2871 6.2076C21.8714 5.79167 21.302 5.56637 20.7155 5.57792H18.2841V12.8221H19.2009ZM19.201 8.99777V6.4675H20.7386C21.0689 6.4675 21.3822 6.5946 21.6156 6.82567C22.1111 7.31093 22.1225 8.11969 21.6441 8.62228C21.4106 8.87068 21.0803 9.00933 20.7386 8.99777H19.201ZM26.6658 8.25259C26.2729 7.88865 25.7377 7.70379 25.0601 7.70379C24.1889 7.70379 23.5341 8.02729 23.1013 8.66853L23.9099 9.18267C24.206 8.74362 24.6103 8.5241 25.1227 8.5241C25.4473 8.5241 25.7605 8.64542 26.0053 8.86494C26.2445 9.07291 26.3811 9.3733 26.3811 9.69103V9.90478C26.0281 9.70836 25.584 9.60438 25.0373 9.60438C24.3996 9.60438 23.8871 9.75458 23.5056 10.0608C23.1241 10.3669 22.9305 10.7713 22.9305 11.2854C22.9191 11.7534 23.1184 12.1982 23.4715 12.4986C23.8302 12.8221 24.2857 12.9838 24.821 12.9838C25.453 12.9838 25.9541 12.7008 26.3356 12.1346H26.3754V12.8221H27.2523V9.76613C27.2523 9.1249 27.0587 8.61653 26.6658 8.25259ZM24.1777 11.9094C23.9897 11.7707 23.8758 11.5454 23.8758 11.3028C23.8758 11.0313 24.0011 10.806 24.246 10.6269C24.4966 10.4478 24.8098 10.3554 25.18 10.3554C25.6925 10.3496 26.0912 10.4652 26.3759 10.6962C26.3759 11.0891 26.2222 11.4299 25.9203 11.7187C25.647 11.996 25.2768 12.152 24.8896 12.152C24.6333 12.1578 24.3827 12.0711 24.1777 11.9094ZM29.2225 15L32.2859 7.86553H31.2895L29.8716 11.4241H29.8545L28.4026 7.86553H27.4061L29.4161 12.5044L28.2773 15H29.2225Z" fill="#3C4043"/>
<path d="M16.0359 9.25202C16.0359 8.96896 16.0132 8.68589 15.9676 8.4086H12.1013V10.0088H14.3163C14.2252 10.5229 13.9291 10.9851 13.4964 11.2739V12.3138H14.8174C15.5918 11.5917 16.0359 10.5229 16.0359 9.25202Z" fill="#4285F4"/>
<path d="M12.1015 13.319C13.2062 13.319 14.14 12.9492 14.8176 12.3138L13.4966 11.2739C13.1264 11.5281 12.6538 11.6725 12.1015 11.6725C11.031 11.6725 10.1257 10.9389 9.8011 9.95682H8.44022V11.0313C9.13489 12.4351 10.5527 13.319 12.1015 13.319Z" fill="#34A853"/>
<path d="M9.80122 9.95682C9.63037 9.44268 9.63037 8.88233 9.80122 8.36241V7.29369H8.44012C7.85354 8.46639 7.85354 9.85284 8.44012 11.0255L9.80122 9.95682Z" fill="#FBBC04"/>
<path d="M12.1015 6.64666C12.688 6.63511 13.2517 6.8604 13.6731 7.27056L14.8461 6.08053C14.1001 5.37575 13.1208 4.9887 12.1015 5.00025C10.5527 5.00025 9.13489 5.88989 8.44022 7.29367L9.8011 8.36817C10.1257 7.38032 11.031 6.64666 12.1015 6.64666Z" fill="#EA4335"/>
</svg>
