<svg width="108" height="22" viewBox="0 0 108 22" fill="none" xmlns="http://www.w3.org/2000/svg">
<g id="Group 2">
<path id="Vector" d="M2.36369 0.256668H0V10.5985H7.48596V8.19557H2.36369V0.256668Z" fill="#1A1A1A"/>
<path id="Vector_2" d="M13.8981 0.000106812C10.6146 0.000106812 8.23082 2.28302 8.23082 5.4276C8.23082 8.57218 10.6146 10.8551 13.8981 10.8551C17.1817 10.8551 19.5645 8.57218 19.5645 5.4276C19.5645 2.28302 17.1817 0.000106812 13.8981 0.000106812ZM17.0162 5.4276C17.0162 7.29905 15.7053 8.65835 13.8991 8.65835C12.0928 8.65835 10.7819 7.30002 10.7819 5.4276C10.7819 3.55518 12.0928 2.19686 13.8991 2.19686C15.7053 2.19686 17.0162 3.55518 17.0162 5.4276Z" fill="#1A1A1A"/>
<path id="Vector_3" d="M26.6001 2.19687C27.5897 2.19687 28.434 2.59575 29.1091 3.38092L29.1617 3.44288L30.793 1.91804L30.7461 1.85995C29.7679 0.660398 28.2543 -0.000854492 26.4834 -0.000854492C23.2248 -0.000854492 20.8601 2.28206 20.8601 5.42664C20.8601 8.57122 23.219 10.8541 26.4681 10.8541C28.2791 10.8541 29.7584 10.2055 30.7461 8.97785L30.793 8.91976L29.1617 7.39491L29.1091 7.45687C28.4379 8.25173 27.5936 8.65545 26.6001 8.65545C24.7212 8.65545 23.4093 7.32714 23.4093 5.4247C23.4093 3.52227 24.7212 2.19396 26.6001 2.19396V2.19687Z" fill="#1A1A1A"/>
<path id="Vector_4" d="M48.6095 10.7292H44.1413V21.166H46.5987V18.3148H48.6095C51.3748 18.3148 53.0921 16.8645 53.0921 14.5293C53.0921 12.1941 51.3748 10.7292 48.6095 10.7292ZM50.606 14.5293C50.606 15.6514 49.8506 16.269 48.4785 16.269H46.5996V12.774H48.4785C49.8698 12.774 50.606 13.381 50.606 14.5293Z" fill="#1A1A1A"/>
<path id="Vector_5" d="M94.1583 12.7169C95.1479 12.7169 95.9922 13.1157 96.6673 13.9009L96.7199 13.9629L98.3511 12.438L98.3043 12.3799C97.3261 11.1804 95.8125 10.5191 94.0416 10.5191C90.7829 10.5191 88.4183 12.8021 88.4183 15.9466C88.4183 19.0912 90.7772 21.3741 94.0273 21.3741C95.8383 21.3741 97.3175 20.7255 98.3052 19.4978L98.3521 19.4397L96.7208 17.9149L96.6683 17.9769C95.997 18.7717 95.1527 19.1754 94.1592 19.1754C92.2803 19.1754 90.9684 17.8471 90.9684 15.9447C90.9684 14.0423 92.2803 12.7139 94.1592 12.7139L94.1583 12.7169Z" fill="#1A1A1A"/>
<path id="Vector_6" d="M81.2813 10.7767L76.729 21.1195H79.151L79.893 19.3023H84.9607L85.7027 21.1195H88.1831L83.6154 10.7767H81.2804H81.2813ZM80.8874 16.908L82.4345 13.1254L83.9816 16.908H80.8874Z" fill="#1A1A1A"/>
<path id="Vector_7" d="M35.9496 0.256668L31.3972 10.5995H33.8193L34.5613 8.78227H39.629L40.371 10.5995H42.8514L38.2846 0.256668H35.9496ZM35.5557 6.38801L37.1028 2.60542L38.6499 6.38801H35.5557Z" fill="#1A1A1A"/>
<path id="Vector_8" d="M102.441 19.1183V16.8838H107.183V14.8633H102.441V12.7759H107.811V10.6973H99.9355V21.1979H108V19.1183H102.441Z" fill="#1A1A1A"/>
<rect id="Rectangle 12591" x="57" y="11" width="18" height="8" fill="#18CCB6"/>
<path id="Vector_9" d="M64.9392 18.7252H57.088V10.7767H54.7243V18.7252V21.1185H57.088H64.9392H75.1532V18.7252H64.9392Z" fill="#1A1A1A"/>
</g>
</svg>
